<mxfile host="app.diagrams.net" modified="2021-03-12T07:28:56.361Z" agent="5.0 (Windows NT 10.0; Win64; x64) AppleWebKit/537.36 (KHTML, like Gecko) Chrome/90.0.4429.0 Safari/537.36 Edg/90.0.818.0" etag="pn45HJC5w_hDaDA0DyYr" version="14.4.7" type="github">
  <diagram id="R2lEEEUBdFMjLlhIrx00" name="Page-1">
    <mxGraphModel dx="3220" dy="1340" grid="1" gridSize="10" guides="1" tooltips="1" connect="1" arrows="1" fold="1" page="1" pageScale="1" pageWidth="850" pageHeight="1100" math="0" shadow="0" extFonts="Permanent Marker^https://fonts.googleapis.com/css?family=Permanent+Marker">
      <root>
        <mxCell id="0" />
        <mxCell id="1" parent="0" />
        <mxCell id="vkFkrPYaUuaXuIz3o4dd-1" value="玩家" style="rounded=0;whiteSpace=wrap;html=1;" vertex="1" parent="1">
          <mxGeometry x="-45" y="390" width="120" height="60" as="geometry" />
        </mxCell>
        <mxCell id="vkFkrPYaUuaXuIz3o4dd-2" value="用户账户" style="rounded=0;whiteSpace=wrap;html=1;" vertex="1" parent="1">
          <mxGeometry x="-45" y="100" width="120" height="60" as="geometry" />
        </mxCell>
        <mxCell id="vkFkrPYaUuaXuIz3o4dd-4" value="" style="endArrow=none;html=1;entryX=0.5;entryY=0;entryDx=0;entryDy=0;exitX=0.5;exitY=1;exitDx=0;exitDy=0;" edge="1" parent="1" source="vkFkrPYaUuaXuIz3o4dd-5" target="vkFkrPYaUuaXuIz3o4dd-2">
          <mxGeometry width="50" height="50" relative="1" as="geometry">
            <mxPoint x="15" y="130" as="sourcePoint" />
            <mxPoint x="25" y="340" as="targetPoint" />
          </mxGeometry>
        </mxCell>
        <mxCell id="vkFkrPYaUuaXuIz3o4dd-5" value="&lt;u&gt;账号&lt;/u&gt;" style="ellipse;whiteSpace=wrap;html=1;" vertex="1" parent="1">
          <mxGeometry x="-85" y="20" width="90" height="60" as="geometry" />
        </mxCell>
        <mxCell id="vkFkrPYaUuaXuIz3o4dd-7" value="" style="endArrow=none;html=1;entryX=0.7;entryY=0.017;entryDx=0;entryDy=0;exitX=0.5;exitY=1;exitDx=0;exitDy=0;entryPerimeter=0;" edge="1" parent="1" source="vkFkrPYaUuaXuIz3o4dd-8" target="vkFkrPYaUuaXuIz3o4dd-2">
          <mxGeometry width="50" height="50" relative="1" as="geometry">
            <mxPoint x="120" y="110" as="sourcePoint" />
            <mxPoint x="120" y="150" as="targetPoint" />
          </mxGeometry>
        </mxCell>
        <mxCell id="vkFkrPYaUuaXuIz3o4dd-8" value="密码" style="ellipse;whiteSpace=wrap;html=1;" vertex="1" parent="1">
          <mxGeometry x="20" width="90" height="60" as="geometry" />
        </mxCell>
        <mxCell id="vkFkrPYaUuaXuIz3o4dd-9" value="" style="endArrow=none;html=1;entryX=0.5;entryY=1;entryDx=0;entryDy=0;exitX=0.5;exitY=0;exitDx=0;exitDy=0;" edge="1" parent="1" source="vkFkrPYaUuaXuIz3o4dd-13" target="vkFkrPYaUuaXuIz3o4dd-10">
          <mxGeometry width="50" height="50" relative="1" as="geometry">
            <mxPoint x="-25" y="390" as="sourcePoint" />
            <mxPoint x="25" y="340" as="targetPoint" />
          </mxGeometry>
        </mxCell>
        <mxCell id="vkFkrPYaUuaXuIz3o4dd-10" value="1" style="text;html=1;strokeColor=none;fillColor=none;align=center;verticalAlign=middle;whiteSpace=wrap;rounded=0;" vertex="1" parent="1">
          <mxGeometry x="-5" y="170" width="40" height="20" as="geometry" />
        </mxCell>
        <mxCell id="vkFkrPYaUuaXuIz3o4dd-12" value="" style="endArrow=none;html=1;entryX=0.5;entryY=0;entryDx=0;entryDy=0;exitX=0.501;exitY=0.979;exitDx=0;exitDy=0;exitPerimeter=0;" edge="1" parent="1" source="vkFkrPYaUuaXuIz3o4dd-2" target="vkFkrPYaUuaXuIz3o4dd-10">
          <mxGeometry width="50" height="50" relative="1" as="geometry">
            <mxPoint x="-5" y="300" as="sourcePoint" />
            <mxPoint x="45" y="250" as="targetPoint" />
          </mxGeometry>
        </mxCell>
        <mxCell id="vkFkrPYaUuaXuIz3o4dd-13" value="拥有" style="rhombus;whiteSpace=wrap;html=1;" vertex="1" parent="1">
          <mxGeometry x="-55" y="240" width="140" height="50" as="geometry" />
        </mxCell>
        <mxCell id="vkFkrPYaUuaXuIz3o4dd-15" value="" style="endArrow=none;html=1;exitX=0.5;exitY=1;exitDx=0;exitDy=0;entryX=0.5;entryY=0;entryDx=0;entryDy=0;" edge="1" parent="1" source="vkFkrPYaUuaXuIz3o4dd-13" target="vkFkrPYaUuaXuIz3o4dd-16">
          <mxGeometry width="50" height="50" relative="1" as="geometry">
            <mxPoint x="-48.360000000000014" y="288.79999999999995" as="sourcePoint" />
            <mxPoint x="-5" y="340" as="targetPoint" />
          </mxGeometry>
        </mxCell>
        <mxCell id="vkFkrPYaUuaXuIz3o4dd-16" value="1" style="text;html=1;strokeColor=none;fillColor=none;align=center;verticalAlign=middle;whiteSpace=wrap;rounded=0;" vertex="1" parent="1">
          <mxGeometry x="-5" y="360" width="40" height="20" as="geometry" />
        </mxCell>
        <mxCell id="vkFkrPYaUuaXuIz3o4dd-17" value="" style="endArrow=none;html=1;exitX=0.5;exitY=0;exitDx=0;exitDy=0;entryX=0.5;entryY=1;entryDx=0;entryDy=0;" edge="1" parent="1" source="vkFkrPYaUuaXuIz3o4dd-1" target="vkFkrPYaUuaXuIz3o4dd-16">
          <mxGeometry width="50" height="50" relative="1" as="geometry">
            <mxPoint x="25" y="290" as="sourcePoint" />
            <mxPoint x="15" y="360" as="targetPoint" />
          </mxGeometry>
        </mxCell>
        <mxCell id="vkFkrPYaUuaXuIz3o4dd-19" value="&lt;u&gt;Id&lt;/u&gt;" style="ellipse;whiteSpace=wrap;html=1;" vertex="1" parent="1">
          <mxGeometry x="-255" y="225" width="120" height="80" as="geometry" />
        </mxCell>
        <mxCell id="vkFkrPYaUuaXuIz3o4dd-20" value="" style="endArrow=none;html=1;exitX=1;exitY=0.5;exitDx=0;exitDy=0;entryX=0;entryY=0.5;entryDx=0;entryDy=0;" edge="1" parent="1" source="vkFkrPYaUuaXuIz3o4dd-19" target="vkFkrPYaUuaXuIz3o4dd-1">
          <mxGeometry width="50" height="50" relative="1" as="geometry">
            <mxPoint x="-55" y="350" as="sourcePoint" />
            <mxPoint x="-50" y="410" as="targetPoint" />
          </mxGeometry>
        </mxCell>
        <mxCell id="vkFkrPYaUuaXuIz3o4dd-21" value="名字" style="ellipse;whiteSpace=wrap;html=1;" vertex="1" parent="1">
          <mxGeometry x="-355" y="480" width="120" height="80" as="geometry" />
        </mxCell>
        <mxCell id="vkFkrPYaUuaXuIz3o4dd-22" value="" style="endArrow=none;html=1;exitX=1;exitY=0.5;exitDx=0;exitDy=0;entryX=0;entryY=0.5;entryDx=0;entryDy=0;" edge="1" parent="1" source="vkFkrPYaUuaXuIz3o4dd-21" target="vkFkrPYaUuaXuIz3o4dd-1">
          <mxGeometry width="50" height="50" relative="1" as="geometry">
            <mxPoint x="-45" y="440" as="sourcePoint" />
            <mxPoint x="-35" y="480" as="targetPoint" />
          </mxGeometry>
        </mxCell>
        <mxCell id="vkFkrPYaUuaXuIz3o4dd-34" value="好友关系" style="rounded=0;whiteSpace=wrap;html=1;" vertex="1" parent="1">
          <mxGeometry x="-45" y="770" width="120" height="60" as="geometry" />
        </mxCell>
        <mxCell id="vkFkrPYaUuaXuIz3o4dd-36" value="" style="endArrow=none;html=1;exitX=0;exitY=0;exitDx=0;exitDy=0;" edge="1" parent="1" source="vkFkrPYaUuaXuIz3o4dd-34" target="vkFkrPYaUuaXuIz3o4dd-37">
          <mxGeometry width="50" height="50" relative="1" as="geometry">
            <mxPoint x="235" y="650" as="sourcePoint" />
            <mxPoint x="-105" y="750" as="targetPoint" />
          </mxGeometry>
        </mxCell>
        <mxCell id="vkFkrPYaUuaXuIz3o4dd-37" value="&lt;u&gt;Id&lt;/u&gt;" style="ellipse;whiteSpace=wrap;html=1;" vertex="1" parent="1">
          <mxGeometry x="-215" y="690" width="120" height="80" as="geometry" />
        </mxCell>
        <mxCell id="vkFkrPYaUuaXuIz3o4dd-38" value="" style="endArrow=none;html=1;exitX=0;exitY=0.5;exitDx=0;exitDy=0;" edge="1" parent="1" source="vkFkrPYaUuaXuIz3o4dd-34" target="vkFkrPYaUuaXuIz3o4dd-39">
          <mxGeometry width="50" height="50" relative="1" as="geometry">
            <mxPoint x="235" y="650" as="sourcePoint" />
            <mxPoint x="-135" y="790" as="targetPoint" />
          </mxGeometry>
        </mxCell>
        <mxCell id="vkFkrPYaUuaXuIz3o4dd-39" value="玩家AId" style="ellipse;whiteSpace=wrap;html=1;" vertex="1" parent="1">
          <mxGeometry x="-255" y="790" width="120" height="80" as="geometry" />
        </mxCell>
        <mxCell id="vkFkrPYaUuaXuIz3o4dd-40" value="" style="endArrow=none;html=1;exitX=0;exitY=1;exitDx=0;exitDy=0;" edge="1" parent="1" source="vkFkrPYaUuaXuIz3o4dd-34" target="vkFkrPYaUuaXuIz3o4dd-41">
          <mxGeometry width="50" height="50" relative="1" as="geometry">
            <mxPoint x="225" y="740" as="sourcePoint" />
            <mxPoint x="-195" y="900" as="targetPoint" />
          </mxGeometry>
        </mxCell>
        <mxCell id="vkFkrPYaUuaXuIz3o4dd-41" value="玩家BId" style="ellipse;whiteSpace=wrap;html=1;" vertex="1" parent="1">
          <mxGeometry x="-235" y="890" width="120" height="80" as="geometry" />
        </mxCell>
        <mxCell id="vkFkrPYaUuaXuIz3o4dd-42" value="" style="endArrow=none;html=1;exitX=0.5;exitY=0;exitDx=0;exitDy=0;entryX=0.5;entryY=1;entryDx=0;entryDy=0;" edge="1" parent="1" source="vkFkrPYaUuaXuIz3o4dd-34" target="vkFkrPYaUuaXuIz3o4dd-44">
          <mxGeometry width="50" height="50" relative="1" as="geometry">
            <mxPoint x="470" y="750" as="sourcePoint" />
            <mxPoint x="260" y="730" as="targetPoint" />
          </mxGeometry>
        </mxCell>
        <mxCell id="vkFkrPYaUuaXuIz3o4dd-44" value="拥有" style="rhombus;whiteSpace=wrap;html=1;" vertex="1" parent="1">
          <mxGeometry x="-55" y="620" width="140" height="50" as="geometry" />
        </mxCell>
        <mxCell id="vkFkrPYaUuaXuIz3o4dd-45" value="" style="endArrow=none;html=1;exitX=0.5;exitY=0;exitDx=0;exitDy=0;entryX=0.5;entryY=1;entryDx=0;entryDy=0;" edge="1" parent="1" source="vkFkrPYaUuaXuIz3o4dd-44" target="vkFkrPYaUuaXuIz3o4dd-1">
          <mxGeometry width="50" height="50" relative="1" as="geometry">
            <mxPoint x="470" y="680" as="sourcePoint" />
            <mxPoint x="520" y="630" as="targetPoint" />
          </mxGeometry>
        </mxCell>
        <mxCell id="vkFkrPYaUuaXuIz3o4dd-47" value="比赛" style="rounded=0;whiteSpace=wrap;html=1;" vertex="1" parent="1">
          <mxGeometry x="329.5" y="530" width="120" height="50" as="geometry" />
        </mxCell>
        <mxCell id="vkFkrPYaUuaXuIz3o4dd-48" value="" style="endArrow=none;html=1;exitX=1;exitY=0;exitDx=0;exitDy=0;" edge="1" parent="1" source="vkFkrPYaUuaXuIz3o4dd-47" target="vkFkrPYaUuaXuIz3o4dd-49">
          <mxGeometry width="50" height="50" relative="1" as="geometry">
            <mxPoint x="150" y="660" as="sourcePoint" />
            <mxPoint x="410" y="670" as="targetPoint" />
          </mxGeometry>
        </mxCell>
        <mxCell id="vkFkrPYaUuaXuIz3o4dd-49" value="&lt;u&gt;Id&lt;/u&gt;" style="ellipse;whiteSpace=wrap;html=1;" vertex="1" parent="1">
          <mxGeometry x="559.5" y="560" width="120" height="80" as="geometry" />
        </mxCell>
        <mxCell id="vkFkrPYaUuaXuIz3o4dd-50" value="" style="endArrow=none;html=1;exitX=1;exitY=0.5;exitDx=0;exitDy=0;" edge="1" parent="1" source="vkFkrPYaUuaXuIz3o4dd-47" target="vkFkrPYaUuaXuIz3o4dd-51">
          <mxGeometry width="50" height="50" relative="1" as="geometry">
            <mxPoint x="150" y="660" as="sourcePoint" />
            <mxPoint x="360" y="770" as="targetPoint" />
          </mxGeometry>
        </mxCell>
        <mxCell id="vkFkrPYaUuaXuIz3o4dd-51" value="参赛玩家AId" style="ellipse;whiteSpace=wrap;html=1;" vertex="1" parent="1">
          <mxGeometry x="564.5" y="680" width="120" height="80" as="geometry" />
        </mxCell>
        <mxCell id="vkFkrPYaUuaXuIz3o4dd-52" value="" style="endArrow=none;html=1;exitX=1;exitY=1;exitDx=0;exitDy=0;" edge="1" parent="1" source="vkFkrPYaUuaXuIz3o4dd-47" target="vkFkrPYaUuaXuIz3o4dd-53">
          <mxGeometry width="50" height="50" relative="1" as="geometry">
            <mxPoint x="150" y="660" as="sourcePoint" />
            <mxPoint x="380" y="860" as="targetPoint" />
          </mxGeometry>
        </mxCell>
        <mxCell id="vkFkrPYaUuaXuIz3o4dd-53" value="参赛玩家BId" style="ellipse;whiteSpace=wrap;html=1;" vertex="1" parent="1">
          <mxGeometry x="534.5" y="780" width="120" height="80" as="geometry" />
        </mxCell>
        <mxCell id="vkFkrPYaUuaXuIz3o4dd-54" value="" style="endArrow=none;html=1;exitX=0.75;exitY=1;exitDx=0;exitDy=0;" edge="1" parent="1" source="vkFkrPYaUuaXuIz3o4dd-47" target="vkFkrPYaUuaXuIz3o4dd-55">
          <mxGeometry width="50" height="50" relative="1" as="geometry">
            <mxPoint x="150" y="660" as="sourcePoint" />
            <mxPoint x="280" y="870" as="targetPoint" />
          </mxGeometry>
        </mxCell>
        <mxCell id="vkFkrPYaUuaXuIz3o4dd-55" value="比赛胜利玩家Id" style="ellipse;whiteSpace=wrap;html=1;" vertex="1" parent="1">
          <mxGeometry x="384.5" y="790" width="120" height="80" as="geometry" />
        </mxCell>
        <mxCell id="vkFkrPYaUuaXuIz3o4dd-56" value="" style="endArrow=none;html=1;exitX=0;exitY=0.5;exitDx=0;exitDy=0;entryX=1;entryY=0.5;entryDx=0;entryDy=0;" edge="1" parent="1" target="vkFkrPYaUuaXuIz3o4dd-57" source="vkFkrPYaUuaXuIz3o4dd-47">
          <mxGeometry width="50" height="50" relative="1" as="geometry">
            <mxPoint x="145" y="710.0000000000002" as="sourcePoint" />
            <mxPoint x="390" y="670" as="targetPoint" />
          </mxGeometry>
        </mxCell>
        <mxCell id="vkFkrPYaUuaXuIz3o4dd-57" value="参加" style="rhombus;whiteSpace=wrap;html=1;" vertex="1" parent="1">
          <mxGeometry x="149.5" y="530" width="140" height="50" as="geometry" />
        </mxCell>
        <mxCell id="vkFkrPYaUuaXuIz3o4dd-58" value="" style="endArrow=none;html=1;exitX=0;exitY=0.5;exitDx=0;exitDy=0;entryX=1;entryY=1;entryDx=0;entryDy=0;" edge="1" parent="1" source="vkFkrPYaUuaXuIz3o4dd-57" target="vkFkrPYaUuaXuIz3o4dd-1">
          <mxGeometry width="50" height="50" relative="1" as="geometry">
            <mxPoint x="600" y="690" as="sourcePoint" />
            <mxPoint x="80" y="440" as="targetPoint" />
          </mxGeometry>
        </mxCell>
        <mxCell id="vkFkrPYaUuaXuIz3o4dd-59" value="公会" style="rounded=0;whiteSpace=wrap;html=1;" vertex="1" parent="1">
          <mxGeometry x="325" y="360" width="120" height="50" as="geometry" />
        </mxCell>
        <mxCell id="vkFkrPYaUuaXuIz3o4dd-61" value="" style="endArrow=none;html=1;exitX=0.5;exitY=0;exitDx=0;exitDy=0;" edge="1" parent="1" target="vkFkrPYaUuaXuIz3o4dd-62" source="vkFkrPYaUuaXuIz3o4dd-59">
          <mxGeometry width="50" height="50" relative="1" as="geometry">
            <mxPoint x="310" y="-25" as="sourcePoint" />
            <mxPoint x="310" y="105" as="targetPoint" />
          </mxGeometry>
        </mxCell>
        <mxCell id="vkFkrPYaUuaXuIz3o4dd-62" value="&lt;u&gt;Id&lt;/u&gt;" style="ellipse;whiteSpace=wrap;html=1;" vertex="1" parent="1">
          <mxGeometry x="357" y="200" width="120" height="80" as="geometry" />
        </mxCell>
        <mxCell id="vkFkrPYaUuaXuIz3o4dd-63" value="公会Id" style="ellipse;whiteSpace=wrap;html=1;" vertex="1" parent="1">
          <mxGeometry x="-335" y="290" width="120" height="80" as="geometry" />
        </mxCell>
        <mxCell id="vkFkrPYaUuaXuIz3o4dd-64" value="" style="endArrow=none;html=1;exitX=1;exitY=0.5;exitDx=0;exitDy=0;entryX=0;entryY=0.5;entryDx=0;entryDy=0;" edge="1" parent="1" source="vkFkrPYaUuaXuIz3o4dd-63" target="vkFkrPYaUuaXuIz3o4dd-1">
          <mxGeometry width="50" height="50" relative="1" as="geometry">
            <mxPoint x="-85" y="400" as="sourcePoint" />
            <mxPoint x="-50" y="400" as="targetPoint" />
          </mxGeometry>
        </mxCell>
        <mxCell id="vkFkrPYaUuaXuIz3o4dd-65" value="" style="endArrow=none;html=1;exitX=0;exitY=0.5;exitDx=0;exitDy=0;entryX=1;entryY=0.5;entryDx=0;entryDy=0;" edge="1" parent="1" target="vkFkrPYaUuaXuIz3o4dd-66" source="vkFkrPYaUuaXuIz3o4dd-59">
          <mxGeometry width="50" height="50" relative="1" as="geometry">
            <mxPoint x="260" y="590" as="sourcePoint" />
            <mxPoint x="400" y="560" as="targetPoint" />
          </mxGeometry>
        </mxCell>
        <mxCell id="vkFkrPYaUuaXuIz3o4dd-66" value="加入" style="rhombus;whiteSpace=wrap;html=1;" vertex="1" parent="1">
          <mxGeometry x="145" y="360" width="140" height="50" as="geometry" />
        </mxCell>
        <mxCell id="vkFkrPYaUuaXuIz3o4dd-67" value="" style="endArrow=none;html=1;exitX=0;exitY=0.5;exitDx=0;exitDy=0;entryX=1;entryY=0;entryDx=0;entryDy=0;" edge="1" parent="1" source="vkFkrPYaUuaXuIz3o4dd-66" target="vkFkrPYaUuaXuIz3o4dd-1">
          <mxGeometry width="50" height="50" relative="1" as="geometry">
            <mxPoint x="610" y="580" as="sourcePoint" />
            <mxPoint x="67.5" y="350" as="targetPoint" />
          </mxGeometry>
        </mxCell>
        <mxCell id="vkFkrPYaUuaXuIz3o4dd-68" value="" style="endArrow=none;html=1;exitX=0.75;exitY=0;exitDx=0;exitDy=0;" edge="1" parent="1" target="vkFkrPYaUuaXuIz3o4dd-69" source="vkFkrPYaUuaXuIz3o4dd-59">
          <mxGeometry width="50" height="50" relative="1" as="geometry">
            <mxPoint x="455" y="235" as="sourcePoint" />
            <mxPoint x="405" y="140" as="targetPoint" />
          </mxGeometry>
        </mxCell>
        <mxCell id="vkFkrPYaUuaXuIz3o4dd-69" value="名字" style="ellipse;whiteSpace=wrap;html=1;" vertex="1" parent="1">
          <mxGeometry x="492" y="245" width="120" height="80" as="geometry" />
        </mxCell>
        <mxCell id="vkFkrPYaUuaXuIz3o4dd-70" value="" style="endArrow=none;html=1;exitX=1;exitY=0.25;exitDx=0;exitDy=0;" edge="1" parent="1" target="vkFkrPYaUuaXuIz3o4dd-71" source="vkFkrPYaUuaXuIz3o4dd-59">
          <mxGeometry width="50" height="50" relative="1" as="geometry">
            <mxPoint x="450" y="250" as="sourcePoint" />
            <mxPoint x="465" y="190" as="targetPoint" />
          </mxGeometry>
        </mxCell>
        <mxCell id="vkFkrPYaUuaXuIz3o4dd-71" value="等级" style="ellipse;whiteSpace=wrap;html=1;" vertex="1" parent="1">
          <mxGeometry x="552" y="335" width="120" height="80" as="geometry" />
        </mxCell>
        <mxCell id="vkFkrPYaUuaXuIz3o4dd-72" value="" style="endArrow=none;html=1;exitX=0.334;exitY=0.025;exitDx=0;exitDy=0;exitPerimeter=0;" edge="1" parent="1" target="vkFkrPYaUuaXuIz3o4dd-73" source="vkFkrPYaUuaXuIz3o4dd-59">
          <mxGeometry width="50" height="50" relative="1" as="geometry">
            <mxPoint x="75" y="155" as="sourcePoint" />
            <mxPoint x="90" y="95" as="targetPoint" />
          </mxGeometry>
        </mxCell>
        <mxCell id="vkFkrPYaUuaXuIz3o4dd-73" value="成立日期" style="ellipse;whiteSpace=wrap;html=1;" vertex="1" parent="1">
          <mxGeometry x="177" y="200" width="120" height="80" as="geometry" />
        </mxCell>
        <mxCell id="vkFkrPYaUuaXuIz3o4dd-74" value="金币" style="ellipse;whiteSpace=wrap;html=1;" vertex="1" parent="1">
          <mxGeometry x="-280" y="560" width="120" height="80" as="geometry" />
        </mxCell>
        <mxCell id="vkFkrPYaUuaXuIz3o4dd-75" value="" style="endArrow=none;html=1;exitX=1;exitY=0.5;exitDx=0;exitDy=0;entryX=0;entryY=0.5;entryDx=0;entryDy=0;" edge="1" parent="1" source="vkFkrPYaUuaXuIz3o4dd-74" target="vkFkrPYaUuaXuIz3o4dd-1">
          <mxGeometry width="50" height="50" relative="1" as="geometry">
            <mxPoint x="-35" y="530" as="sourcePoint" />
            <mxPoint x="-35" y="540" as="targetPoint" />
          </mxGeometry>
        </mxCell>
        <mxCell id="vkFkrPYaUuaXuIz3o4dd-76" value="胜点" style="ellipse;whiteSpace=wrap;html=1;" vertex="1" parent="1">
          <mxGeometry x="-400" y="390" width="120" height="80" as="geometry" />
        </mxCell>
        <mxCell id="vkFkrPYaUuaXuIz3o4dd-77" value="" style="endArrow=none;html=1;exitX=1;exitY=0.5;exitDx=0;exitDy=0;entryX=0;entryY=0.5;entryDx=0;entryDy=0;" edge="1" parent="1" source="vkFkrPYaUuaXuIz3o4dd-76" target="vkFkrPYaUuaXuIz3o4dd-1">
          <mxGeometry width="50" height="50" relative="1" as="geometry">
            <mxPoint x="-25" y="540" as="sourcePoint" />
            <mxPoint x="-5" y="460" as="targetPoint" />
          </mxGeometry>
        </mxCell>
      </root>
    </mxGraphModel>
  </diagram>
</mxfile>
